<?xml version="1.0" encoding="UTF-8" standalone="no"?><!DOCTYPE svg PUBLIC "-//W3C//DTD SVG 1.1//EN" "http://www.w3.org/Graphics/SVG/1.1/DTD/svg11.dtd"><svg width="100%" height="100%" viewBox="0 0 834 834" version="1.1" xmlns="http://www.w3.org/2000/svg" xmlns:xlink="http://www.w3.org/1999/xlink" xml:space="preserve" xmlns:serif="http://www.serif.com/" style="fill-rule:evenodd;clip-rule:evenodd;stroke-linejoin:round;stroke-miterlimit:2;"><g id="Layer1"><path d="M833.333,166.667c0,-91.986 -74.68,-166.667 -166.666,-166.667l-500,0c-91.986,0 -166.667,74.681 -166.667,166.667l0,500c0,91.986 74.681,166.666 166.667,166.666l500,0c91.986,0 166.666,-74.68 166.666,-166.666l0,-500Z" style="fill:#0f0f0f;"/><path d="M833.333,166.667c0,-91.986 -74.68,-166.667 -166.666,-166.667l-500,0c-91.986,0 -166.667,74.681 -166.667,166.667l0,500c0,91.986 74.681,166.666 166.667,166.666l500,0c91.986,0 166.666,-74.68 166.666,-166.666l0,-500Z" style="fill:url(#_Linear1);"/></g><g id="gold"><path id="face" d="M414.714,684.245c-136.231,-0 -283.204,-85.449 -283.204,-272.949c0,-187.5 146.973,-272.95 283.204,-272.95c75.683,0 145.507,24.903 197.265,70.313c56.153,49.805 85.938,120.117 85.938,202.637c-0,82.519 -29.785,152.343 -85.938,202.148c-51.758,45.41 -122.07,70.801 -197.265,70.801Z" style="fill:url(#_Radial2);fill-rule:nonzero;"/><path d="M648.551,249.04c26.026,41.992 39.6,91.992 39.6,147.607c0,82.52 -29.785,152.344 -85.937,202.149c-51.758,45.41 -122.071,70.8 -197.266,70.8c-88.184,0 -180.664,-35.888 -235.254,-112.011c52.539,86.23 151.367,126.66 245.02,126.66c75.195,-0 145.507,-25.391 197.265,-70.801c56.153,-49.805 85.938,-119.629 85.938,-202.148c-0,-62.207 -16.944,-117.481 -49.366,-162.256Z" style="fill:#eb8f00;fill-rule:nonzero;"/></g><g id="facial_expressions"><g id="relieved-face"><path id="mouth" d="M416.667,597.331c-41.7,-0 -71.436,-30.713 -80.42,-47.754c-3.418,-5.762 -4.053,-12.793 -1.807,-19.092c1.367,-3.76 4.981,-6.299 8.984,-6.396c1.368,0.048 2.686,0.293 3.956,0.781c20.996,8.252 39.404,20.215 69.531,20.215c30.127,-0 48.828,-11.963 69.531,-20.215c1.27,-0.488 2.588,-0.781 3.955,-0.781c3.955,0.195 7.373,2.685 8.74,6.396c2.246,6.299 1.612,13.33 -1.806,19.092c-9.229,17.041 -38.965,47.754 -80.664,47.754Z" style="fill:#422b0d;fill-rule:nonzero;"/><g id="eyes"><g id="peepers"><path d="M345.915,369.645l-0.977,0.977c-0.781,0.879 -1.611,1.709 -2.49,2.441l-3.369,2.783c-1.416,1.075 -3.028,2.246 -4.883,3.418c-1.856,1.172 -3.76,2.295 -5.859,3.369c-2.149,1.075 -4.395,2.002 -6.69,2.784c-2.392,0.732 -4.834,1.318 -7.324,1.806c-2.539,0.391 -5.078,0.586 -7.666,0.586l-4.297,0l-3.418,-0.439c-2.49,-0.488 -4.932,-1.074 -7.324,-1.807c-2.344,-0.879 -4.59,-1.904 -6.787,-3.076c-2.1,-1.074 -4.053,-2.246 -5.86,-3.369c-2.881,-1.904 -5.566,-4.053 -8.105,-6.397l-3.076,-2.832l-1.221,-1.22c-6.25,-5.713 -15.674,-6.055 -22.314,-0.83c-4.834,3.71 -6.446,10.351 -3.809,15.869l0.732,1.465c0.635,1.416 1.368,2.783 2.149,4.101c5.029,8.399 11.865,15.576 19.971,21.094c3.857,2.685 7.959,4.98 12.255,6.836c4.737,2.099 9.62,3.711 14.649,4.883c2.685,0.488 5.176,0.976 8.447,1.269c1.514,0 3.272,0.293 4.053,0.293l3.808,0c5.469,-0.098 10.889,-0.635 16.26,-1.709c5.029,-1.172 9.912,-2.783 14.649,-4.883c4.296,-1.855 8.398,-4.15 12.255,-6.836c6.055,-4.101 11.426,-9.179 15.87,-14.99l2.343,-3.271l1.953,-3.077c0.733,-1.171 1.368,-2.441 1.905,-3.759l0.537,-1.221c2.93,-6.982 -0.391,-15.039 -7.373,-17.969c-0.488,-0.195 -0.977,-0.39 -1.465,-0.488c-6.152,-1.953 -12.939,-0.342 -17.529,4.199Z" style="fill:#422b0d;fill-rule:nonzero;"/><path d="M565.641,369.645l-0.976,0.977c-0.782,0.879 -1.612,1.709 -2.491,2.441l-3.369,2.783c-1.416,1.075 -3.027,2.246 -4.882,3.418c-1.856,1.172 -3.76,2.295 -5.86,3.369c-2.148,1.075 -4.394,2.002 -6.689,2.784c-2.393,0.732 -4.834,1.318 -7.325,1.806c-2.539,0.391 -5.078,0.586 -7.666,0.586l-4.296,0l-3.418,-0.439c-2.491,-0.488 -4.932,-1.074 -7.325,-1.807c-2.343,-0.879 -4.589,-1.904 -6.787,-3.076c-2.099,-1.074 -4.052,-2.246 -5.859,-3.369c-2.881,-1.904 -5.566,-4.053 -8.106,-6.397l-3.076,-2.832l-1.22,-1.22c-6.25,-5.713 -15.674,-6.055 -22.315,-0.83c-4.834,3.71 -6.445,10.351 -3.808,15.869l0.732,1.465c0.635,1.416 1.367,2.783 2.148,4.101c5.03,8.399 11.866,15.576 19.971,21.094c3.858,2.685 7.959,4.98 12.256,6.836c4.785,2.099 9.766,3.76 14.893,4.883c2.685,0.488 5.175,0.976 8.447,1.269c1.513,0 3.271,0.293 4.053,0.293l3.808,0c5.469,-0.098 10.889,-0.635 16.26,-1.709c5.127,-1.123 10.107,-2.783 14.892,-4.883c4.297,-1.855 8.399,-4.15 12.256,-6.836c6.055,-4.101 11.426,-9.179 15.869,-14.99l2.344,-3.271l1.953,-3.077c0.733,-1.171 1.368,-2.441 1.905,-3.759l0.537,-1.221c2.929,-6.982 -0.391,-15.039 -7.373,-17.969c-0.489,-0.195 -0.977,-0.39 -1.465,-0.488c-6.299,-2.197 -13.33,-0.537 -18.018,4.199Z" style="fill:#422b0d;fill-rule:nonzero;"/></g></g></g><g id="eyebrows"><path d="M242.936,315.495c-3.418,3.564 -9.131,3.711 -12.695,0.244c-3.223,-3.076 -3.662,-8.106 -1.074,-11.719c5.468,-7.812 12.158,-14.697 19.873,-20.361c20.459,-15.772 46.093,-23.242 71.826,-20.85c12.109,1.514 9.766,16.992 -1.026,18.018c-28.906,2.295 -56.054,14.551 -76.904,34.668" style="fill:#422b0d;fill-rule:nonzero;"/></g><g id="eyebrows-2"><path d="M585.075,315.495c3.418,3.564 9.131,3.711 12.695,0.244c3.223,-3.076 3.662,-8.106 1.074,-11.719c-5.468,-7.812 -12.158,-14.697 -19.873,-20.361c-20.459,-15.772 -46.093,-23.242 -71.826,-20.85c-12.109,1.514 -9.765,16.992 1.026,18.018c28.906,2.295 56.054,14.551 76.904,34.668" style="fill:#422b0d;fill-rule:nonzero;"/></g></g><defs><linearGradient id="_Linear1" x1="0" y1="0" x2="1" y2="0" gradientUnits="userSpaceOnUse" gradientTransform="matrix(834.467,834.467,-834.467,834.467,-3.61466,3.24708)"><stop offset="0" style="stop-color:#1c1500;stop-opacity:0.4"/><stop offset="1" style="stop-color:#af8600;stop-opacity:0.4"/></linearGradient><radialGradient id="_Radial2" cx="0" cy="0" r="1" gradientUnits="userSpaceOnUse" gradientTransform="matrix(278.124,0,0,278.124,414.714,411.296)"><stop offset="0" style="stop-color:#fde030;stop-opacity:1"/><stop offset="0.5" style="stop-color:#fde030;stop-opacity:1"/><stop offset="0.92" style="stop-color:#f7c02b;stop-opacity:1"/><stop offset="1" style="stop-color:#f4a223;stop-opacity:1"/></radialGradient></defs></svg>